<?xml version="1.0" encoding="UTF-8" standalone="no"?>
<svg
   width="2660.2583"
   height="644.21173"
   xml:space="preserve"
   overflow="hidden"
   version="1.1"
   id="svg28"
   sodipodi:docname="meds_logo.svg"
   inkscape:version="1.2.2 (732a01da63, 2022-12-09)"
   xmlns:inkscape="http://www.inkscape.org/namespaces/inkscape"
   xmlns:sodipodi="http://sodipodi.sourceforge.net/DTD/sodipodi-0.dtd"
   xmlns="http://www.w3.org/2000/svg"
   xmlns:svg="http://www.w3.org/2000/svg"><sodipodi:namedview
     id="namedview30"
     pagecolor="#505050"
     bordercolor="#eeeeee"
     borderopacity="1"
     inkscape:showpageshadow="0"
     inkscape:pageopacity="0"
     inkscape:pagecheckerboard="0"
     inkscape:deskcolor="#505050"
     showgrid="false"
     inkscape:zoom="0.43037318"
     inkscape:cx="2108.6351"
     inkscape:cy="812.08592"
     inkscape:window-width="2560"
     inkscape:window-height="1511"
     inkscape:window-x="-9"
     inkscape:window-y="-9"
     inkscape:window-maximized="1"
     inkscape:current-layer="text16" /><defs
     id="defs14"><clipPath
       id="clip0"><rect
         x="993"
         y="371"
         width="3094"
         height="1551"
         id="rect2" /></clipPath><clipPath
       id="clip1"><path
         d="M 993.184,965.178 1429.2,656.942 1741.73,1099.03 1305.72,1407.27 Z"
         fill-rule="evenodd"
         clip-rule="evenodd"
         id="path5" /></clipPath><clipPath
       id="clip2"><path
         d="M 993.184,965.178 1429.2,656.942 1741.73,1099.03 1305.72,1407.27 Z"
         fill-rule="evenodd"
         clip-rule="evenodd"
         id="path8" /></clipPath><clipPath
       id="clip3"><path
         d="M 807.776,702.91 1688.22,80.4887 2186.16,784.846 1305.72,1407.27 Z"
         fill-rule="evenodd"
         clip-rule="evenodd"
         id="path11" /></clipPath></defs><g
     clip-path="url(#clip0)"
     transform="translate(-1100.6137,-656.942)"
     id="g26"><g
       aria-label="MEDS"
       transform="translate(1728.42,1274)"
       id="text16"
       style="font-weight:700;font-size:738px;font-family:'Aptos Display', 'Aptos Display_MSFontService', sans-serif"><path
         d="M 289.296,0 162.36,-413.28 h -2.952 q 0.738,14.76 2.214,44.28 1.476,29.52 2.952,63.468 1.476,33.948 1.476,60.516 V 0 H 66.42 v -526.932 h 152.028 l 124.722,402.948 h 2.214 L 477.486,-526.932 H 629.514 V 0 H 525.456 v -249.444 q 0,-25.092 0.738,-57.564 1.476,-32.472 2.214,-61.254 1.476,-29.52 2.214,-44.28 H 527.67 L 391.878,0 Z"
         id="path1593" /><path
         d="M 1065.6726,0 H 762.35457 v -526.932 h 303.31803 v 91.512 H 873.79257 v 115.866 h 178.59603 v 91.512 H 873.79257 V -92.25 h 191.88003 z"
         id="path1595" /><path
         d="m 1612.5301,-268.632 q 0,133.578 -76.014,201.474 Q 1460.5021,0 1324.7101,0 h -149.076 v -526.932 h 165.312 q 82.656,0 143.172,29.52 61.254,29.52 94.464,87.084 33.948,57.564 33.948,141.696 z m -115.866,2.952 q 0,-87.084 -38.376,-128.412 -38.376,-41.328 -111.438,-41.328 h -59.778 v 343.17 h 47.97 q 161.622,0 161.622,-173.43 z"
         id="path1597" /><path
         d="m 2032.452,-146.124 q 0,70.11 -50.922,112.176 -50.184,41.328 -143.172,41.328 -83.394,0 -149.076,-31.734 v -104.058 q 37.638,16.236 77.49,30.258 40.59,13.284 80.442,13.284 41.328,0 58.302,-15.498 17.712,-16.236 17.712,-40.59 0,-19.926 -14.022,-33.948 -13.284,-14.022 -36.162,-25.83 -22.878,-12.546 -52.398,-26.568 -18.45,-8.856 -39.852,-20.664 -21.402,-12.546 -41.328,-30.258 -19.188,-18.45 -31.734,-44.28 -12.546,-25.83 -12.546,-61.992 0,-70.848 47.97,-109.962 47.97,-39.852 130.626,-39.852 41.328,0 78.228,9.594 36.9,9.594 78.228,27.306 l -36.162,87.084 q -36.162,-14.76 -64.944,-22.878 -28.782,-8.118 -59.04,-8.118 -31.734,0 -48.708,14.76 -16.974,14.76 -16.974,38.376 0,28.044 25.092,44.28 25.092,16.236 74.538,39.852 40.59,19.188 68.634,39.852 28.782,20.664 44.28,48.708 15.498,28.044 15.498,69.372 z"
         id="path1599" /></g><g
       clip-path="url(#clip1)"
       id="g24"><g
         clip-path="url(#clip2)"
         id="g22"><g
           clip-path="url(#clip3)"
           id="g20"><path
             d="m 1034.93,416.13 c 27.46,-42.119 43.3,-92.492 43.3,-146.572 C 1078.23,120.627 957.604,0 808.673,0 754.593,0 704.388,15.8365 662.101,43.2977 c -13.309,8.7606 -14.32,27.2927 -3.032,38.5805 L 996.353,419.162 c 11.287,11.288 29.987,10.446 38.577,-3.032 z m -79.685,79.688 c 13.31,-8.761 14.321,-27.293 3.033,-38.581 L 620.994,119.953 c -11.288,-11.288 -29.989,-10.445 -38.581,3.033 -27.461,42.118 -43.297,92.492 -43.297,146.572 0,148.93 120.627,269.558 269.557,269.558 54.08,0 104.285,-15.837 146.572,-43.298 z M 507.948,619.983 H 31.1676 c -16.005,0 -28.47202,13.815 -25.27102,29.483 C 31.8415,771.272 140.002,862.585 269.558,862.585 c 129.556,0 237.716,-91.313 263.661,-213.119 3.369,-15.668 -9.266,-29.483 -25.271,-29.483 z m 0,-53.912 c 16.005,0 28.472,-13.815 25.271,-29.483 C 507.274,414.782 399.114,323.469 269.558,323.469 140.002,323.469 31.8415,414.782 5.89658,536.588 2.5271,552.256 15.1626,566.071 31.1676,566.071 Z"
             transform="matrix(0.816559,-0.577262,0.577267,0.816566,807.776,702.91)"
             id="path18" /></g></g></g></g></svg>
